<?xml version="1.0" encoding="utf-8"?>
<!-- Generator: Adobe Illustrator 26.0.3, SVG Export Plug-In . SVG Version: 6.00 Build 0)  -->
<svg version="1.1" id="Logo_on_Light" xmlns="http://www.w3.org/2000/svg" xmlns:xlink="http://www.w3.org/1999/xlink" x="0px"
	 y="0px" viewBox="0 0 1279.7 722.9" style="enable-background:new 0 0 1279.7 722.9;" xml:space="preserve">
<style type="text/css">
	.st0{fill:#FFFFFF;}
	.st1{fill:none;stroke:#704199;stroke-width:4;}
	.st2{fill:url(#SVGID_1_);}
	.st3{fill:url(#SVGID_00000151501442957802861280000016965729753571687045_);}
	.st4{display:none;}
	.st5{display:inline;fill:#704199;}
	.st6{font-family:'ArialMT';}
	.st7{font-size:54px;}
	.st8{fill:#704199;}
	.st9{fill:none;stroke:#FFFFFF;stroke-miterlimit:10;}
</style>
<g id="Outline_Logo">
	<g id="Outline_Logo-2">
		<path class="st0" d="M18.4,446.8l-8.6-50.3l553.7-25.8l86,146.5L18.4,446.8z M938.4,404.2l-98.5-5.3l-67.6-4.8l-74.6-5.8
			l-26.6-2.6l-46.1-6l-69.4-58.6L9.5,391.6l10-96.6L530,59.8l0.6-0.3c30.6-14.2,62.3-25.8,94.8-34.9L662,14.3
			c13.1-3.7,26.5-6.8,40-9.1l3.4-0.5l13.1-1.4c8-0.8,16.1-1.3,24.1-1.3c2.7,0,5.4,0,8.1,0.1c27.2,1,77.3,3.2,106.6,7.3l18.3,2.7
			c6.5,0.9,12.8,2.4,19,4.5c13.1,4.4,22.5,10.6,28.6,18.8l0.6,0.6l105.6,114.4l95.6,120.3l11.8,16.6c11.1,15.4,18.5,33.2,21.5,52
			c0.5,2.8,0.8,5.4,0.9,7.5c0.6,8.9-0.6,17.9-3.4,26.4l-0.7,2c-1.5,4.5-3.7,8.7-6.6,12.4l-0.4,0.5l-3.4,3.4
			c-4.1,4.8-9.6,8.4-15.6,10.2l-0.6,0.2l-0.6,0.1c-5.3,0.9-10.7,1.3-16.1,1.3l-124.6,1.2L938.4,404.2z"/>
		<path class="st1" d="M18.4,446.8l-8.6-50.3l553.7-25.8l86,146.5L18.4,446.8z M938.4,404.2l-98.5-5.3l-67.6-4.8l-74.6-5.8
			l-26.6-2.6l-46.1-6l-69.4-58.6L9.5,391.6l10-96.6L530,59.8l0.6-0.3c30.6-14.2,62.3-25.8,94.8-34.9L662,14.3
			c13.1-3.7,26.5-6.8,40-9.1l3.4-0.5l13.1-1.4c8-0.8,16.1-1.3,24.1-1.3c2.7,0,5.4,0,8.1,0.1c27.2,1,77.3,3.2,106.6,7.3l18.3,2.7
			c6.5,0.9,12.8,2.4,19,4.5c13.1,4.4,22.5,10.6,28.6,18.8l0.6,0.6l105.6,114.4l95.6,120.3l11.8,16.6c11.1,15.4,18.5,33.2,21.5,52
			c0.5,2.8,0.8,5.4,0.9,7.5c0.6,8.9-0.6,17.9-3.4,26.4l-0.7,2c-1.5,4.5-3.7,8.7-6.6,12.4l-0.4,0.5l-3.4,3.4
			c-4.1,4.8-9.6,8.4-15.6,10.2l-0.6,0.2l-0.6,0.1c-5.3,0.9-10.7,1.3-16.1,1.3l-124.6,1.2L938.4,404.2z"/>
	</g>
</g>
<g id="Logo">
	
		<linearGradient id="SVGID_1_" gradientUnits="userSpaceOnUse" x1="72.92" y1="494.0408" x2="1202.6348" y2="494.0408" gradientTransform="matrix(1 0 0 -1 -52.32 697.23)">
		<stop  offset="0" style="stop-color:#6E3F98"/>
		<stop  offset="0.49" style="stop-color:#00ADD4"/>
		<stop  offset="1" style="stop-color:#618CBE"/>
	</linearGradient>
	<path class="st2" d="M1141.3,382c2.3-2.9,4-6.2,5.2-9.7v-0.1l0.7-2c2.5-7.4,3.5-15.2,3-23l0,0c-0.1-2-0.4-4.2-0.8-6.6
		c-2.8-17.4-9.7-33.9-20-48.1l-11.7-16.3l-95.2-119.9l-105.2-114l0,0l-1-1c-6-8.5-16-13.2-24.6-16.1c-5.7-1.9-11.5-3.2-17.4-4.1
		l-18.2-2.7l0,0c-29.2-4.1-80-6.3-105.7-7.2c-10.3-0.4-20.7,0-31,1.1l-12.9,1.4l-3,0.5c-13.2,2.3-26.2,5.3-39.1,8.9l-36.6,10.2
		c-32,8.9-63.2,20.4-93.4,34.4l-0.7,0.3L28.9,303.8l-8.3,80.2l537.9-72.3l70.4,59.4l43.3,5.6l26.5,2.6l74.3,5.8l67.5,4.8l98.1,5.3
		l48.6,0.2l124.6-1.1c4.9,0,9.8-0.4,14.6-1.2l0,0c4.5-1.4,8.6-4.1,11.7-7.7L1141.3,382z M1137.3,336c0.6,3,0.5,6.2-0.3,9.2
		c-0.1,0.3-0.2,0.5-0.2,0.7l-0.1,0.3c-0.3,0.6-1,1.1-1.7,1.1l-54-1.8c-2.3-0.1-4.5-1.3-5.7-3.3l-17.7-28.7c-0.9-1.5-0.5-3.4,1-4.3
		c0.5-0.3,1.1-0.5,1.7-0.5l35.6,0.7c7.7,0.1,15.4,0.9,23,2.4l0.4,0.1C1135.4,313.3,1135.7,323.9,1137.3,336L1137.3,336z
		 M884.7,344.5l-14.1-15.7c-2.2-2.5-2-6.3,0.5-8.5c0.2-0.2,0.4-0.4,0.7-0.5l10-6.7c4.5-3,9.8-4.6,15.3-4.6h60.3c2.1,0,4.1,1.2,5,3.2
		l16.6,35.3c0.6,1.1,0.1,2.5-1.1,3.1c-0.3,0.2-0.7,0.2-1.1,0.2l-84.5-2.3C889.3,347.9,886.6,346.6,884.7,344.5z M1014.4,156.2
		l-74.7-3.5l-148.3-4l-78.7-116l183.4,3.8c5.4,0.1,10.5,2.4,14.2,6.4L1014.4,156.2z M704.7,36.8l76.1,114.9l-97.6,2.8
		c-4.9,0.1-9.6-2-12.7-5.8l-30.4-37c-3.5-4.2-3.4-10.4,0.3-14.5L704.7,36.8z M68.3,347.1l-28.9,6.3c-2.2,0.5-4.4-0.9-4.9-3.2
		c-0.1-0.4-0.1-0.8-0.1-1.2l2.1-24.9c0.2-2.8,2.1-5.2,4.8-6.1l27.9-9.7c2.4-0.8,5.1,0.4,5.9,2.9c0.2,0.5,0.3,1.1,0.3,1.7l-0.8,26.7
		C74.4,343.2,71.9,346.3,68.3,347.1z M182.1,324.2l-69.7,13.7c-6.2,1.2-12.3-2.8-13.5-9c-0.2-0.7-0.2-1.5-0.2-2.3v-19.8
		c0-5.5,3.5-10.4,8.6-12.2l73.6-26.1c5.3-1.9,11.2,0.9,13,6.2c0.4,1.1,0.6,2.2,0.6,3.4v31C194.5,316.4,189.3,322.7,182.1,324.2z
		 M239.7,294l-0.5-35.7c-0.1-6.1,3.7-11.6,9.4-13.8l154.8-58.8c8.4-3.2,17.7,1,20.9,9.3c0.7,1.7,1,3.6,1.1,5.4l1.3,54.7
		c0.3,12.1-8.3,22.7-20.2,24.9l-149.6,27.9c-7.9,1.5-15.4-3.7-16.9-11.6C239.8,295.7,239.8,294.8,239.7,294z M497.7,154.9l30.9-12.5
		c9-3.6,19.3,0.7,23,9.8c0.7,1.8,1.1,3.7,1.3,5.6l4.5,79.6c0.6,10.4-6.7,19.5-16.9,21.3l-32,5.5c-10.3,1.7-20-5.2-21.7-15.4
		c-0.1-0.8-0.2-1.6-0.3-2.4l-2.6-70C483.5,166.9,489.1,158.4,497.7,154.9L497.7,154.9z"/>
	
		<linearGradient id="SVGID_00000115511831428922587580000015894937957474837637_" gradientUnits="userSpaceOnUse" x1="20.39" y1="280.885" x2="632.64" y2="280.885" gradientTransform="matrix(1 0 0 -1 0 724)">
		<stop  offset="0" style="stop-color:#6E3F98"/>
		<stop  offset="0.49" style="stop-color:#00ADD4"/>
		<stop  offset="1" style="stop-color:#618CBE"/>
	</linearGradient>
	<polygon style="fill:url(#SVGID_00000115511831428922587580000015894937957474837637_);" points="558.5,380 20.4,405 26.2,438.6 
		632.6,506.3 	"/>
</g>
<g id="Purple_Text">
	<g id="Trademark_symbol" class="st4">
		<text transform="matrix(1 0 0 1 1207.6801 705.4)" class="st5 st6 st7"> ™</text>
	</g>
	<g id="GO_Outline">
		<path class="st8" d="M86.8,537.5c-16.9,0-31.3-6.2-41.7-17.9c-10.3-11.6-15.7-27.5-15.7-46s5.6-34.6,16.2-46.2s25.4-17.9,42-17.9
			c14.3-0.2,28,5.7,37.7,16.1l8.4,8.7l-3.5,23.4l1.5,54.6l-0.2,2.8c-5.1,9.9-14.2,16.5-27.6,20.3C98.3,536.8,92.6,537.6,86.8,537.5z
			"/>
		<path class="st8" d="M86.8,533.5c-32,0-53.4-24.1-53.4-59.9c0-17.6,5.2-32.7,15.2-43.5c9.8-10.7,23.6-16.6,39-16.6
			c13.2-0.2,25.8,5.2,34.9,14.9l5,5.2l0.6,0.6l-0.6,0.7l-17.2,20.5l-0.7,0.9l-0.8-0.8l-6.2-6.4c-4.5-4.6-8.8-6.5-14.7-6.5
			c-14.8,0-23.6,11.5-23.6,30.8c0,11.7,3.1,31.2,23.7,31.2c3,0.1,6-0.5,8.7-1.6v-11.8H75.9v-28.4h50.3v53.6h-2v-51.6H77.9v24.4h20.8
			v15.1l-0.6,0.3c-3.2,1.4-6.7,2.1-10.2,2.1c-9.6,0-25.7-4.3-25.7-33.2c0-20.5,9.6-32.8,25.6-32.8c6.6,0,11.2,2.1,16.2,7.2l5.4,5.6
			l15.9-18.9l-4.4-4.5c-8.6-9.2-20.8-14.4-33.4-14.3c-14.8,0-28.2,5.7-37.6,15.9c-9.6,10.5-14.6,25.1-14.6,42.2
			c0,34.6,20.7,57.9,51.5,57.9L86.8,533.5z"/>
		<path class="st8" d="M86.8,529.5c-29.6,0-49.4-22.5-49.4-55.9c0-16.6,4.9-30.7,14.1-40.8c9-9.9,21.8-15.3,36.1-15.3
			c12.1-0.1,23.7,4.8,32,13.7l3.1,3.2l-13.3,15.8l-3.9-4c-5.3-5.5-10.5-7.8-17.6-7.8c-17.3,0-27.6,13-27.6,34.8
			c0,30.7,17.4,35.2,27.7,35.2c4.3,0.1,8.5-0.9,12.2-2.9l0.5-0.3v-18.2H79.9v-20.4h42.3v48.4l-1.4,1.5
			C112.8,524.8,100.5,529.5,86.8,529.5z"/>
		<path class="st8" d="M86.8,523.5c-26.4,0-43.4-19.6-43.4-49.9c0-30,17.8-50.1,44.2-50.1c10.2-0.1,19.9,3.9,27,11.2l-5.6,6.6
			c-6.2-6.1-12.8-8.8-21.1-8.8c-20.4,0-33.6,16-33.6,40.8c0,25.8,12.6,41.2,33.7,41.2c7.5,0,14.4-2.3,18.4-6l0.3-0.3v-27.1H85.9
			v-8.4h30.3v40C109.4,519.5,98.5,523.5,86.8,523.5z"/>
		<path class="st8" d="M177,537.5c-16,0-30.3-6.6-40.3-18.5c-9.7-11.6-14.8-27.4-14.8-45.8s5.2-34.2,15-45.7s24.1-17.9,40.1-17.9
			c16,0,30.2,6.4,40.1,17.9s15,27.3,15,45.7c0,18.4-5.1,34.2-14.8,45.8C207.3,530.9,193,537.5,177,537.5z"/>
		<path class="st8" d="M177,531.5c-13.8,0.2-26.9-5.8-35.7-16.4c-8.8-10.5-13.4-25-13.4-42c0-34.5,19.7-57.7,49.1-57.7
			s49.1,23.2,49.1,57.7c0,17-4.6,31.5-13.4,42C203.8,525.7,190.7,531.7,177,531.5z M177,440.5c-16.3,0-22.1,16.9-22.1,32.7
			c0,20.3,8.7,33.4,22.1,33.4c13.5,0,22.1-13.1,22.1-33.4C199.1,457.4,193.3,440.5,177,440.5L177,440.5z"/>
		<path class="st8" d="M177,529.5c-28.2,0-47.1-22.6-47.1-56.4c0-33.3,18.9-55.7,47.1-55.7s47.1,22.4,47.1,55.7
			C224,506.9,205.1,529.5,177,529.5z M177,438.5c-14.9,0-24.1,13.3-24.1,34.7c0,21.4,9.5,35.4,24.1,35.4s24.1-13.9,24.1-35.4
			S191.9,438.5,177,438.5L177,438.5z"/>
		<path class="st8" d="M177,523.5c-24.6,0-41.1-20.2-41.1-50.4s16.1-49.7,41.1-49.7c25,0,41.1,19.5,41.1,49.7S201.5,523.5,177,523.5
			z M177,432.5c-18.3,0-30.1,16-30.1,40.7c0,25.1,11.8,41.4,30.1,41.4s30.1-16.2,30.1-41.4C207.1,448.5,195.3,432.5,177,432.5
			L177,432.5z"/>
		<path class="st0" d="M86.8,537.5c-16.9,0-31.3-6.2-41.7-17.9c-10.3-11.6-15.7-27.5-15.7-46s5.6-34.6,16.2-46.2s25.4-17.9,42-17.9
			c14.3-0.2,28,5.7,37.7,16.1l8.4,8.7l-3.5,23.4l1.5,54.6l-0.2,2.8c-5.1,9.9-14.2,16.5-27.6,20.3C98.3,536.8,92.6,537.6,86.8,537.5z
			"/>
		<path class="st0" d="M86.8,537.5c-16.9,0-31.3-6.2-41.7-17.9c-10.3-11.6-15.7-27.5-15.7-46s5.6-34.6,16.2-46.2s25.4-17.9,42-17.9
			c14.3-0.2,28,5.7,37.7,16.1l8.4,8.7l-3.5,23.4l1.5,54.6l-0.2,2.8c-5.1,9.9-14.2,16.5-27.6,20.3C98.3,536.8,92.6,537.6,86.8,537.5z
			"/>
		<path class="st0" d="M86.8,533.5c-32,0-53.4-24.1-53.4-59.9c0-17.6,5.2-32.7,15.2-43.5c9.8-10.7,23.6-16.6,39-16.6
			c13.2-0.2,25.8,5.2,34.9,14.9l5,5.2l0.6,0.6l-0.6,0.7l-17.2,20.5l-0.7,0.9l-0.8-0.8l-6.2-6.4c-4.5-4.6-8.8-6.5-14.7-6.5
			c-14.8,0-23.6,11.5-23.6,30.8c0,11.7,3.1,31.2,23.7,31.2c3,0.1,6-0.5,8.7-1.6v-11.8H75.9v-28.4h50.3v53.6h-2v-51.6H77.9v24.4h20.8
			v15.1l-0.6,0.3c-3.2,1.4-6.7,2.1-10.2,2.1c-9.6,0-25.7-4.3-25.7-33.2c0-20.5,9.6-32.8,25.6-32.8c6.6,0,11.2,2.1,16.2,7.2l5.4,5.6
			l15.9-18.9l-4.4-4.5c-8.6-9.2-20.8-14.4-33.4-14.3c-14.8,0-28.2,5.7-37.6,15.9c-9.6,10.5-14.6,25.1-14.6,42.2
			c0,34.6,20.7,57.9,51.5,57.9L86.8,533.5z"/>
		<path class="st0" d="M86.8,533.5c-32,0-53.4-24.1-53.4-59.9c0-17.6,5.2-32.7,15.2-43.5c9.8-10.7,23.6-16.6,39-16.6
			c13.2-0.2,25.8,5.2,34.9,14.9l5,5.2l0.6,0.6l-0.6,0.7l-17.2,20.5l-0.7,0.9l-0.8-0.8l-6.2-6.4c-4.5-4.6-8.8-6.5-14.7-6.5
			c-14.8,0-23.6,11.5-23.6,30.8c0,11.7,3.1,31.2,23.7,31.2c3,0.1,6-0.5,8.7-1.6v-11.8H75.9v-28.4h50.3v53.6h-2v-51.6H77.9v24.4h20.8
			v15.1l-0.6,0.3c-3.2,1.4-6.7,2.1-10.2,2.1c-9.6,0-25.7-4.3-25.7-33.2c0-20.5,9.6-32.8,25.6-32.8c6.6,0,11.2,2.1,16.2,7.2l5.4,5.6
			l15.9-18.9l-4.4-4.5c-8.6-9.2-20.8-14.4-33.4-14.3c-14.8,0-28.2,5.7-37.6,15.9c-9.6,10.5-14.6,25.1-14.6,42.2
			c0,34.6,20.7,57.9,51.5,57.9L86.8,533.5z"/>
		<path class="st0" d="M86.8,529.5c-29.6,0-49.4-22.5-49.4-55.9c0-16.6,4.9-30.7,14.1-40.8c9-9.9,21.8-15.3,36.1-15.3
			c12.1-0.1,23.7,4.8,32,13.7l3.1,3.2l-13.3,15.8l-3.9-4c-5.3-5.5-10.5-7.8-17.6-7.8c-17.3,0-27.6,13-27.6,34.8
			c0,30.7,17.4,35.2,27.7,35.2c4.3,0.1,8.5-0.9,12.2-2.9l0.5-0.3v-18.2H79.9v-20.4h42.3v48.4l-1.4,1.5
			C112.8,524.8,100.5,529.5,86.8,529.5z"/>
		<path class="st0" d="M86.8,529.5c-29.6,0-49.4-22.5-49.4-55.9c0-16.6,4.9-30.7,14.1-40.8c9-9.9,21.8-15.3,36.1-15.3
			c12.1-0.1,23.7,4.8,32,13.7l3.1,3.2l-13.3,15.8l-3.9-4c-5.3-5.5-10.5-7.8-17.6-7.8c-17.3,0-27.6,13-27.6,34.8
			c0,30.7,17.4,35.2,27.7,35.2c4.3,0.1,8.5-0.9,12.2-2.9l0.5-0.3v-18.2H79.9v-20.4h42.3v48.4l-1.4,1.5
			C112.8,524.8,100.5,529.5,86.8,529.5z"/>
		<path class="st0" d="M86.8,523.5c-26.4,0-43.4-19.6-43.4-49.9c0-30,17.8-50.1,44.2-50.1c10.2-0.1,19.9,3.9,27,11.2l-5.6,6.6
			c-6.2-6.1-12.8-8.8-21.1-8.8c-20.4,0-33.6,16-33.6,40.8c0,25.8,12.6,41.2,33.7,41.2c7.5,0,14.4-2.3,18.4-6l0.3-0.3v-27.1H85.9
			v-8.4h30.3v40C109.4,519.5,98.5,523.5,86.8,523.5z"/>
		<path class="st0" d="M86.8,523.5c-26.4,0-43.4-19.6-43.4-49.9c0-30,17.8-50.1,44.2-50.1c10.2-0.1,19.9,3.9,27,11.2l-5.6,6.6
			c-6.2-6.1-12.8-8.8-21.1-8.8c-20.4,0-33.6,16-33.6,40.8c0,25.8,12.6,41.2,33.7,41.2c7.5,0,14.4-2.3,18.4-6l0.3-0.3v-27.1H85.9
			v-8.4h30.3v40C109.4,519.5,98.5,523.5,86.8,523.5z"/>
		<path class="st0" d="M177,537.5c-16,0-30.3-6.6-40.3-18.5c-9.7-11.6-14.8-27.4-14.8-45.8s5.2-34.2,15-45.7s24.1-17.9,40.1-17.9
			c16,0,30.2,6.4,40.1,17.9s15,27.3,15,45.7c0,18.4-5.1,34.2-14.8,45.8C207.3,530.9,193,537.5,177,537.5z"/>
		<path class="st0" d="M177,537.5c-16,0-30.3-6.6-40.3-18.5c-9.7-11.6-14.8-27.4-14.8-45.8s5.2-34.2,15-45.7s24.1-17.9,40.1-17.9
			c16,0,30.2,6.4,40.1,17.9s15,27.3,15,45.7c0,18.4-5.1,34.2-14.8,45.8C207.3,530.9,193,537.5,177,537.5z"/>
		<path class="st0" d="M177,531.5c-13.8,0.2-26.9-5.8-35.7-16.4c-8.8-10.5-13.4-25-13.4-42c0-34.5,19.7-57.7,49.1-57.7
			s49.1,23.2,49.1,57.7c0,17-4.6,31.5-13.4,42C203.8,525.7,190.7,531.7,177,531.5z M177,440.5c-16.3,0-22.1,16.9-22.1,32.7
			c0,20.3,8.7,33.4,22.1,33.4c13.5,0,22.1-13.1,22.1-33.4C199.1,457.4,193.3,440.5,177,440.5L177,440.5z"/>
		<path class="st0" d="M177,531.5c-13.8,0.2-26.9-5.8-35.7-16.4c-8.8-10.5-13.4-25-13.4-42c0-34.5,19.7-57.7,49.1-57.7
			s49.1,23.2,49.1,57.7c0,17-4.6,31.5-13.4,42C203.8,525.7,190.7,531.7,177,531.5z M177,440.5c-16.3,0-22.1,16.9-22.1,32.7
			c0,20.3,8.7,33.4,22.1,33.4c13.5,0,22.1-13.1,22.1-33.4C199.1,457.4,193.3,440.5,177,440.5L177,440.5z"/>
		<path class="st0" d="M177,529.5c-28.2,0-47.1-22.6-47.1-56.4c0-33.3,18.9-55.7,47.1-55.7s47.1,22.4,47.1,55.7
			C224,506.9,205.1,529.5,177,529.5z M177,438.5c-14.9,0-24.1,13.3-24.1,34.7c0,21.4,9.5,35.4,24.1,35.4s24.1-13.9,24.1-35.4
			S191.9,438.5,177,438.5L177,438.5z"/>
		<path class="st0" d="M177,529.5c-28.2,0-47.1-22.6-47.1-56.4c0-33.3,18.9-55.7,47.1-55.7s47.1,22.4,47.1,55.7
			C224,506.9,205.1,529.5,177,529.5z M177,438.5c-14.9,0-24.1,13.3-24.1,34.7c0,21.4,9.5,35.4,24.1,35.4s24.1-13.9,24.1-35.4
			S191.9,438.5,177,438.5L177,438.5z"/>
		<path class="st0" d="M177,523.5c-24.6,0-41.1-20.2-41.1-50.4s16.1-49.7,41.1-49.7c25,0,41.1,19.5,41.1,49.7S201.5,523.5,177,523.5
			z M177,432.5c-18.3,0-30.1,16-30.1,40.7c0,25.1,11.8,41.4,30.1,41.4s30.1-16.2,30.1-41.4C207.1,448.5,195.3,432.5,177,432.5
			L177,432.5z"/>
		<path class="st0" d="M177,523.5c-24.6,0-41.1-20.2-41.1-50.4s16.1-49.7,41.1-49.7c25,0,41.1,19.5,41.1,49.7S201.5,523.5,177,523.5
			z M177,432.5c-18.3,0-30.1,16-30.1,40.7c0,25.1,11.8,41.4,30.1,41.4s30.1-16.2,30.1-41.4C207.1,448.5,195.3,432.5,177,432.5
			L177,432.5z"/>
		<path class="st9" d="M86.8,537.5c-16.9,0-31.3-6.2-41.7-17.9c-10.3-11.6-15.7-27.5-15.7-46s5.6-34.6,16.2-46.2s25.4-17.9,42-17.9
			c14.3-0.2,28,5.7,37.7,16.1l8.4,8.7l-3.5,23.4l1.5,54.6l-0.2,2.8c-5.1,9.9-14.2,16.5-27.6,20.3C98.3,536.8,92.6,537.6,86.8,537.5z
			"/>
		<path class="st9" d="M86.8,537.5c-16.9,0-31.3-6.2-41.7-17.9c-10.3-11.6-15.7-27.5-15.7-46s5.6-34.6,16.2-46.2s25.4-17.9,42-17.9
			c14.3-0.2,28,5.7,37.7,16.1l8.4,8.7l-3.5,23.4l1.5,54.6l-0.2,2.8c-5.1,9.9-14.2,16.5-27.6,20.3C98.3,536.8,92.6,537.6,86.8,537.5z
			"/>
		<path class="st9" d="M86.8,533.5c-32,0-53.4-24.1-53.4-59.9c0-17.6,5.2-32.7,15.2-43.5c9.8-10.7,23.6-16.6,39-16.6
			c13.2-0.2,25.8,5.2,34.9,14.9l5,5.2l0.6,0.6l-0.6,0.7l-17.2,20.5l-0.7,0.9l-0.8-0.8l-6.2-6.4c-4.5-4.6-8.8-6.5-14.7-6.5
			c-14.8,0-23.6,11.5-23.6,30.8c0,11.7,3.1,31.2,23.7,31.2c3,0.1,6-0.5,8.7-1.6v-11.8H75.9v-28.4h50.3v53.6h-2v-51.6H77.9v24.4h20.8
			v15.1l-0.6,0.3c-3.2,1.4-6.7,2.1-10.2,2.1c-9.6,0-25.7-4.3-25.7-33.2c0-20.5,9.6-32.8,25.6-32.8c6.6,0,11.2,2.1,16.2,7.2l5.4,5.6
			l15.9-18.9l-4.4-4.5c-8.6-9.2-20.8-14.4-33.4-14.3c-14.8,0-28.2,5.7-37.6,15.9c-9.6,10.5-14.6,25.1-14.6,42.2
			c0,34.6,20.7,57.9,51.5,57.9L86.8,533.5z"/>
		<path class="st9" d="M86.8,533.5c-32,0-53.4-24.1-53.4-59.9c0-17.6,5.2-32.7,15.2-43.5c9.8-10.7,23.6-16.6,39-16.6
			c13.2-0.2,25.8,5.2,34.9,14.9l5,5.2l0.6,0.6l-0.6,0.7l-17.2,20.5l-0.7,0.9l-0.8-0.8l-6.2-6.4c-4.5-4.6-8.8-6.5-14.7-6.5
			c-14.8,0-23.6,11.5-23.6,30.8c0,11.7,3.1,31.2,23.7,31.2c3,0.1,6-0.5,8.7-1.6v-11.8H75.9v-28.4h50.3v53.6h-2v-51.6H77.9v24.4h20.8
			v15.1l-0.6,0.3c-3.2,1.4-6.7,2.1-10.2,2.1c-9.6,0-25.7-4.3-25.7-33.2c0-20.5,9.6-32.8,25.6-32.8c6.6,0,11.2,2.1,16.2,7.2l5.4,5.6
			l15.9-18.9l-4.4-4.5c-8.6-9.2-20.8-14.4-33.4-14.3c-14.8,0-28.2,5.7-37.6,15.9c-9.6,10.5-14.6,25.1-14.6,42.2
			c0,34.6,20.7,57.9,51.5,57.9L86.8,533.5z"/>
		<path class="st9" d="M86.8,529.5c-29.6,0-49.4-22.5-49.4-55.9c0-16.6,4.9-30.7,14.1-40.8c9-9.9,21.8-15.3,36.1-15.3
			c12.1-0.1,23.7,4.8,32,13.7l3.1,3.2l-13.3,15.8l-3.9-4c-5.3-5.5-10.5-7.8-17.6-7.8c-17.3,0-27.6,13-27.6,34.8
			c0,30.7,17.4,35.2,27.7,35.2c4.3,0.1,8.5-0.9,12.2-2.9l0.5-0.3v-18.2H79.9v-20.4h42.3v48.4l-1.4,1.5
			C112.8,524.8,100.5,529.5,86.8,529.5z"/>
		<path class="st9" d="M86.8,529.5c-29.6,0-49.4-22.5-49.4-55.9c0-16.6,4.9-30.7,14.1-40.8c9-9.9,21.8-15.3,36.1-15.3
			c12.1-0.1,23.7,4.8,32,13.7l3.1,3.2l-13.3,15.8l-3.9-4c-5.3-5.5-10.5-7.8-17.6-7.8c-17.3,0-27.6,13-27.6,34.8
			c0,30.7,17.4,35.2,27.7,35.2c4.3,0.1,8.5-0.9,12.2-2.9l0.5-0.3v-18.2H79.9v-20.4h42.3v48.4l-1.4,1.5
			C112.8,524.8,100.5,529.5,86.8,529.5z"/>
		<path class="st9" d="M86.8,523.5c-26.4,0-43.4-19.6-43.4-49.9c0-30,17.8-50.1,44.2-50.1c10.2-0.1,19.9,3.9,27,11.2l-5.6,6.6
			c-6.2-6.1-12.8-8.8-21.1-8.8c-20.4,0-33.6,16-33.6,40.8c0,25.8,12.6,41.2,33.7,41.2c7.5,0,14.4-2.3,18.4-6l0.3-0.3v-27.1H85.9
			v-8.4h30.3v40C109.4,519.5,98.5,523.5,86.8,523.5z"/>
		<path class="st9" d="M86.8,523.5c-26.4,0-43.4-19.6-43.4-49.9c0-30,17.8-50.1,44.2-50.1c10.2-0.1,19.9,3.9,27,11.2l-5.6,6.6
			c-6.2-6.1-12.8-8.8-21.1-8.8c-20.4,0-33.6,16-33.6,40.8c0,25.8,12.6,41.2,33.7,41.2c7.5,0,14.4-2.3,18.4-6l0.3-0.3v-27.1H85.9
			v-8.4h30.3v40C109.4,519.5,98.5,523.5,86.8,523.5z"/>
		<path class="st9" d="M177,537.5c-16,0-30.3-6.6-40.3-18.5c-9.7-11.6-14.8-27.4-14.8-45.8s5.2-34.2,15-45.7s24.1-17.9,40.1-17.9
			c16,0,30.2,6.4,40.1,17.9s15,27.3,15,45.7c0,18.4-5.1,34.2-14.8,45.8C207.3,530.9,193,537.5,177,537.5z"/>
		<path class="st9" d="M177,537.5c-16,0-30.3-6.6-40.3-18.5c-9.7-11.6-14.8-27.4-14.8-45.8s5.2-34.2,15-45.7s24.1-17.9,40.1-17.9
			c16,0,30.2,6.4,40.1,17.9s15,27.3,15,45.7c0,18.4-5.1,34.2-14.8,45.8C207.3,530.9,193,537.5,177,537.5z"/>
		<path class="st9" d="M177,531.5c-13.8,0.2-26.9-5.8-35.7-16.4c-8.8-10.5-13.4-25-13.4-42c0-34.5,19.7-57.7,49.1-57.7
			s49.1,23.2,49.1,57.7c0,17-4.6,31.5-13.4,42C203.8,525.7,190.7,531.7,177,531.5z M177,440.5c-16.3,0-22.1,16.9-22.1,32.7
			c0,20.3,8.7,33.4,22.1,33.4c13.5,0,22.1-13.1,22.1-33.4C199.1,457.4,193.3,440.5,177,440.5L177,440.5z"/>
		<path class="st9" d="M177,531.5c-13.8,0.2-26.9-5.8-35.7-16.4c-8.8-10.5-13.4-25-13.4-42c0-34.5,19.7-57.7,49.1-57.7
			s49.1,23.2,49.1,57.7c0,17-4.6,31.5-13.4,42C203.8,525.7,190.7,531.7,177,531.5z M177,440.5c-16.3,0-22.1,16.9-22.1,32.7
			c0,20.3,8.7,33.4,22.1,33.4c13.5,0,22.1-13.1,22.1-33.4C199.1,457.4,193.3,440.5,177,440.5L177,440.5z"/>
		<path class="st9" d="M177,529.5c-28.2,0-47.1-22.6-47.1-56.4c0-33.3,18.9-55.7,47.1-55.7s47.1,22.4,47.1,55.7
			C224,506.9,205.1,529.5,177,529.5z M177,438.5c-14.9,0-24.1,13.3-24.1,34.7c0,21.4,9.5,35.4,24.1,35.4s24.1-13.9,24.1-35.4
			S191.9,438.5,177,438.5L177,438.5z"/>
		<path class="st9" d="M177,529.5c-28.2,0-47.1-22.6-47.1-56.4c0-33.3,18.9-55.7,47.1-55.7s47.1,22.4,47.1,55.7
			C224,506.9,205.1,529.5,177,529.5z M177,438.5c-14.9,0-24.1,13.3-24.1,34.7c0,21.4,9.5,35.4,24.1,35.4s24.1-13.9,24.1-35.4
			S191.9,438.5,177,438.5L177,438.5z"/>
		<path class="st9" d="M177,523.5c-24.6,0-41.1-20.2-41.1-50.4s16.1-49.7,41.1-49.7c25,0,41.1,19.5,41.1,49.7S201.5,523.5,177,523.5
			z M177,432.5c-18.3,0-30.1,16-30.1,40.7c0,25.1,11.8,41.4,30.1,41.4s30.1-16.2,30.1-41.4C207.1,448.5,195.3,432.5,177,432.5
			L177,432.5z"/>
		<path class="st9" d="M177,523.5c-24.6,0-41.1-20.2-41.1-50.4s16.1-49.7,41.1-49.7c25,0,41.1,19.5,41.1,49.7S201.5,523.5,177,523.5
			z M177,432.5c-18.3,0-30.1,16-30.1,40.7c0,25.1,11.8,41.4,30.1,41.4s30.1-16.2,30.1-41.4C207.1,448.5,195.3,432.5,177,432.5
			L177,432.5z"/>
	</g>
	<g id="Outline_Text">
		<g id="Outline_Text-2">
			<path class="st0" d="M1040.3,686.9h-62.4l-2.5-5c-0.4-0.7-1-2.2-2-4.4l-80.3-2.4l-8.5,11.3H783.9l-19.5-34h-39.5l-5.1,34h-53
				l-47.3,0.6l-2.5-5c-1.2-2.4-5.9-12.8-10.2-22.5h-60.2l-20.5,27H406.3l14.5-96h-35l-34,41.8l-2.7,3.2h38.1l-41.8,51H178.7
				l-4.5-53.4c-0.1-1.9-0.3-3.8-0.4-5.8c-1.8,3-3.8,6.3-6,9.9l-19.8,32.5c-8.4,13.8-16.4,18.9-29.7,18.9c-14,0-21.6-6-26.2-20.9
				l-10-32.8c-1-3.1-1.8-6-2.6-8.7c-1.1,3.1-2.3,6.2-3.4,9.2l-19.6,51H3l50.9-126.3c6.1-14.7,17.6-23.5,30.7-23.5
				c12.1,0,21.1,7.1,25.4,19.9l12.1,36.7c2.3,7,4.4,13.4,6.3,19.3c3.4-5.5,7.7-12.3,13.4-21.2l23.4-36.8
				c7.5-11.9,17.1-17.9,28.6-17.9c13.9,0,23.9,10.2,25.4,26l8,81.3h2.7L246,538.5h306.8l-42.6,52h-36.6l-8.3,53.4H495l67.8-89.2
				c9.3-12,19.9-18.1,31.6-18.1c12.7,0,22.1,6.7,28,19.8l38.6,87.4h12.2l6.2-41.4H784c5.1,0,12.7-2.2,12.7-8.1c0-1.4,0-3.9-8.2-3.9
				H672.6l42.6-52h75.7c10.7,0,26.2,1.6,39,9.4c13.8,8.4,21.1,21.9,21.1,39.1c0,22.8-11.8,42.7-30.2,52.3c1,1.4,2.1,3,3.3,4.7h29.5
				l67.8-89.2c9.2-12,19.9-18.1,31.6-18.1c12.7,0,22.1,6.7,28,19.8l39,88.3h11l11.3-73.5l-22.3-6.8l2.6-16.8l31.3-8l45.7,1
				L1082.7,644h6.7l16-104.4h52.5l-14.6,96h94.8l-42,51h-107l-27.2,0.4l-15.3,22L1040.3,686.9z"/>
			<path class="st1" d="M1040.3,686.9h-62.4l-2.5-5c-0.4-0.7-1-2.2-2-4.4l-80.3-2.4l-8.5,11.3H783.9l-19.5-34h-39.5l-5.1,34h-53
				l-47.3,0.6l-2.5-5c-1.2-2.4-5.9-12.8-10.2-22.5h-60.2l-20.5,27H406.3l14.5-96h-35l-34,41.8l-2.7,3.2h38.1l-41.8,51H178.7
				l-4.5-53.4c-0.1-1.9-0.3-3.8-0.4-5.8c-1.8,3-3.8,6.3-6,9.9l-19.8,32.5c-8.4,13.8-16.4,18.9-29.7,18.9c-14,0-21.6-6-26.2-20.9
				l-10-32.8c-1-3.1-1.8-6-2.6-8.7c-1.1,3.1-2.3,6.2-3.4,9.2l-19.6,51H3l50.9-126.3c6.1-14.7,17.6-23.5,30.7-23.5
				c12.1,0,21.1,7.1,25.4,19.9l12.1,36.7c2.3,7,4.4,13.4,6.3,19.3c3.4-5.5,7.7-12.3,13.4-21.2l23.4-36.8
				c7.5-11.9,17.1-17.9,28.6-17.9c13.9,0,23.9,10.2,25.4,26l8,81.3h2.7L246,538.5h306.8l-42.6,52h-36.6l-8.3,53.4H495l67.8-89.2
				c9.3-12,19.9-18.1,31.6-18.1c12.7,0,22.1,6.7,28,19.8l38.6,87.4h12.2l6.2-41.4H784c5.1,0,12.7-2.2,12.7-8.1c0-1.4,0-3.9-8.2-3.9
				H672.6l42.6-52h75.7c10.7,0,26.2,1.6,39,9.4c13.8,8.4,21.1,21.9,21.1,39.1c0,22.8-11.8,42.7-30.2,52.3c1,1.4,2.1,3,3.3,4.7h29.5
				l67.8-89.2c9.2-12,19.9-18.1,31.6-18.1c12.7,0,22.1,6.7,28,19.8l39,88.3h11l11.3-73.5l-22.3-6.8l2.6-16.8l31.3-8l45.7,1
				L1082.7,644h6.7l16-104.4h52.5l-14.6,96h94.8l-42,51h-107l-27.2,0.4l-15.3,22L1040.3,686.9z"/>
		</g>
	</g>
	<path class="st8" d="M86.8,528.5c-14.1,0-26.2-5.1-34.9-14.8c-8.7-9.7-13.5-23.7-13.5-40.1c0-33,19.8-55.1,49.2-55.1
		c11.8-0.1,23.2,4.7,31.3,13.4l2.5,2.6l-12,14.3l-3.1-3.2c-3.6-3.8-9-8.1-18.3-8.1c-17.6,0-28.6,13.7-28.6,35.8
		c0,23,10.5,36.2,28.7,36.2c5.4,0,10.5-1.4,13.7-3.7v-19.7H80.9v-18.4h40.3v47l-1.1,1.2C112.3,523.9,100.2,528.5,86.8,528.5z"/>
	<path class="st8" d="M177,528.5c-27.6,0-46.1-22.2-46.1-55.4c0-32.7,18.5-54.7,46.1-54.7s46.1,22,46.1,54.7
		C223,506.3,204.5,528.5,177,528.5z M177,437.5c-15.5,0-25.1,13.7-25.1,35.7c0,22,9.9,36.4,25.1,36.4c15.3,0,25.1-14.3,25.1-36.4
		S192.5,437.5,177,437.5L177,437.5z"/>
	<path class="st1" d="M86.8,528.5c-14.1,0-26.2-5.1-34.9-14.8c-8.7-9.7-13.5-23.7-13.5-40.1c0-33,19.8-55.1,49.2-55.1
		c11.8-0.1,23.2,4.7,31.3,13.4l2.5,2.6l-12,14.3l-3.1-3.2c-3.6-3.8-9-8.1-18.3-8.1c-17.6,0-28.6,13.7-28.6,35.8
		c0,23,10.5,36.2,28.7,36.2c5.4,0,10.5-1.4,13.7-3.7v-19.7H80.9v-18.4h40.3v47l-1.1,1.2C112.3,523.9,100.2,528.5,86.8,528.5z"/>
	<path class="st1" d="M177,528.5c-27.6,0-46.1-22.2-46.1-55.4c0-32.7,18.5-54.7,46.1-54.7s46.1,22,46.1,54.7
		C223,506.3,204.5,528.5,177,528.5z M177,437.5c-15.5,0-25.1,13.7-25.1,35.7c0,22,9.9,36.4,25.1,36.4c15.3,0,25.1-14.3,25.1-36.4
		S192.5,437.5,177,437.5L177,437.5z"/>
	<g id="MetaRail">
		<path class="st8" d="M113.5,596c5.8,17.6,9.6,30,12.1,38.8c5-9.1,10.8-18.6,23.6-38.6l23.5-36.8c5.2-8.1,11.8-13.8,21-13.8
			c8.7,0,15.3,5.8,16.5,17.8l11,114H187l-3.8-45.2c-1.2-14.7-1.8-25.2-2-35.7c-5,9.1-10.8,19-21.1,35.9L140.2,665
			c-7.8,12.8-13.6,14.5-22,14.5s-13.6-1.7-17.6-14.5l-10-32.8c-5.5-17.8-8-27-10.2-35.7c-3.3,9.5-7.8,21.9-13,35.7l-17.3,45.2H16.3
			l45.9-114c5-12,13.6-17.8,22.3-17.8c8.8,0,14,5.2,16.8,13.8L113.5,596z"/>
		<path class="st8" d="M368.2,644.4l-27,33H233.9l19.9-130h129l-27.7,34h-72l-2.4,16h87.9l-23.6,29h-68.7l-2.7,18H368.2z"/>
		<path class="st8" d="M533.8,547.4l-27.8,34h-40l-14.6,96h-34.5l14.5-96h-52.9l27.9-34H533.8z"/>
		<path class="st8" d="M835.7,677.4h-46.5l-19.5-34h-52.5l-5.1,34h-34.8l9.9-66H784c11.6,0,21.7-6.5,21.7-17.1
			c0-8.6-6.4-12.9-17.2-12.9h-96.9l27.8-34h71.4c23.4,0,51.1,8.4,51.1,39.5c0,23.5-14.5,43.3-36,48.2c3.2,3.3,6.7,8,12.8,17.1
			L835.7,677.4z"/>
		<path class="st8" d="M1071.3,657.4L1050,688l-10.8-38.3l13.1-84.7l-22.3-6.8l0.5-3.3l24.3-6.2l34.1,0.8L1071.3,657.4z"/>
		<path class="st8" d="M1218.9,644.4l-27.2,33h-98.5l19.7-129h34.3l-14.6,96H1218.9z"/>
		<path class="st8" d="M950.5,602.1"/>
		<path class="st8" d="M937.3,602.1"/>
		<path class="st8" d="M953.8,612"/>
		<path class="st8" d="M930.7,612"/>
		<path class="st8" d="M960.4,625.2"/>
		<path class="st8" d="M920.9,625.2"/>
		<g id="Rails">
			
				<rect x="927.1" y="611.3" transform="matrix(3.036406e-02 -0.9995 0.9995 3.036406e-02 245.1887 1574.0188)" class="st8" width="13.5" height="98.7"/>
			
				<rect x="934.5" y="599.1" transform="matrix(3.036406e-02 -0.9995 0.9995 3.036406e-02 275.5478 1553.5487)" class="st8" width="8" height="71.2"/>
			
				<rect x="940.7" y="592.7" transform="matrix(3.036406e-02 -0.9995 0.9995 3.036406e-02 296.3756 1542.0054)" class="st8" width="4.5" height="51.1"/>
			
				<rect x="941.6" y="592.7" transform="matrix(3.036406e-02 -0.9995 0.9995 3.036406e-02 310.7048 1529.3579)" class="st8" width="4" height="23.6"/>
		</g>
		<path id="A" class="st8" d="M983.5,677.9c-2.3-4.7-20.7-46-23.4-52.2l-14.8-34.3L880,677.4h-40.8l89.2-117.3
			c5.8-7.6,13.7-14.5,24.5-14.5c10.3,0,16.1,6.4,19.8,14.5l51.8,117.3L983.5,677.9z"/>
	</g>
</g>
<g>
	<path class="st8" d="M591.7,601.7 M578.5,601.7 M595,611.5 M571.9,611.5 M601.6,624.7 M562,624.7 M521.2,677 M624.6,677
		c-2.3-4.6-20.7-46-23.4-52.2l-14.8-34.3l-65.3,86.1h-40.8l89.2-117.3c5.8-7.6,13.7-14.5,24.5-14.5c10.3,0,16.1,6.4,19.8,14.5
		l51.8,117.3L624.6,677z"/>
	<polygon class="st8" points="559.6,616.6 612.2,616.6 615.7,649.6 538.2,649.6 	"/>
</g>
<g>
	<g>
		<g>
			<path class="st0" d="M1265.5,689.8v-12.4l-3.8,12.4h-4.7l-4-12.8v12.8h-5.3v-23.5h7l4.7,14.8l4.5-14.8h6.9v23.5H1265.5z
				 M1234.7,689.8v-18.3h-7v-5.2h19.6v5.2h-7v18.3H1234.7z"/>
		</g>
	</g>
</g>
<g>
	<g>
		<g>
			<path class="st8" d="M1235.7,688.8v-18.3h-7v-3.2h17.6v3.2h-7v18.3H1235.7z M1248.7,688.8v-21.5h5.3l5.4,17.2l5.2-17.2h5.2v21.5
				h-3.3v-18l-5.5,18h-3.2l-5.8-18.3v18.3H1248.7z"/>
		</g>
	</g>
</g>
</svg>
